<?xml version="1.0" encoding="UTF-8" standalone="no"?>
<svg width="35.2778mm" height="35.2778mm"
 viewBox="0 0 100 100"
 xmlns="http://www.w3.org/2000/svg" xmlns:xlink="http://www.w3.org/1999/xlink"  version="1.2" baseProfile="tiny">
<title>SOP_proto_custombrush.icon</title>
<desc>Generated with Qt</desc>
<defs>
</defs>
<g fill="none" stroke="black" stroke-width="1" fill-rule="evenodd" stroke-linecap="square" stroke-linejoin="bevel" >

<g fill="none" stroke="#000000" stroke-opacity="1" stroke-width="1" stroke-linecap="square" stroke-linejoin="bevel" transform="matrix(1,0,0,1,0,0)"
font-family="MS Shell Dlg 2" font-size="8.25" font-weight="400" font-style="normal" 
>
</g>

<g fill="#a9a9a9" fill-opacity="1" stroke="#a9a9a9" stroke-opacity="1" stroke-width="1" stroke-linecap="square" stroke-linejoin="bevel" transform="matrix(1,0,0,1,0,0)"
font-family="MS Shell Dlg 2" font-size="8.25" font-weight="400" font-style="normal" 
>
<path vector-effect="non-scaling-stroke" fill-rule="evenodd" d="M90,45 L97.8,48 L92.2,32.2 L78.8,27.4 L90,45"/>
</g>

<g fill="#9b719b" fill-opacity="1" stroke="#9b719b" stroke-opacity="1" stroke-width="1" stroke-linecap="square" stroke-linejoin="bevel" transform="matrix(1,0,0,1,0,0)"
font-family="MS Shell Dlg 2" font-size="8.25" font-weight="400" font-style="normal" 
>
<path vector-effect="non-scaling-stroke" fill-rule="evenodd" d="M84.8,33.4 L78.8,27.4 L66,25.4 L79.8,45.8 L90,45 L84.8,33.4"/>
</g>

<g fill="#a9547f" fill-opacity="1" stroke="#a9547f" stroke-opacity="1" stroke-width="1" stroke-linecap="square" stroke-linejoin="bevel" transform="matrix(1,0,0,1,0,0)"
font-family="MS Shell Dlg 2" font-size="8.25" font-weight="400" font-style="normal" 
>
<path vector-effect="non-scaling-stroke" fill-rule="evenodd" d="M75.2,34.4 L66,25.4 L49.8,26 L67.4,49.6 L79.8,45.8 L75.2,34.4"/>
</g>

<g fill="#b83863" fill-opacity="1" stroke="#b83863" stroke-opacity="1" stroke-width="1" stroke-linecap="square" stroke-linejoin="bevel" transform="matrix(1,0,0,1,0,0)"
font-family="MS Shell Dlg 2" font-size="8.25" font-weight="400" font-style="normal" 
>
<path vector-effect="non-scaling-stroke" fill-rule="evenodd" d="M62.4,36.2 L49.8,26 L35.4,30.8 L55.8,58.6 L67.4,49.6 L62.4,36.2"/>
</g>

<g fill="#d45454" fill-opacity="1" stroke="#d45454" stroke-opacity="1" stroke-width="1" stroke-linecap="square" stroke-linejoin="bevel" transform="matrix(1,0,0,1,0,0)"
font-family="MS Shell Dlg 2" font-size="8.25" font-weight="400" font-style="normal" 
>
<path vector-effect="non-scaling-stroke" fill-rule="evenodd" d="M50,45 L45,37.5 L35.4,30.8 L22.2,38.4 L46.42,71.27 L55.8,58.6 L50,45"/>
</g>

<g fill="#c61c46" fill-opacity="1" stroke="#c61c46" stroke-opacity="1" stroke-width="1" stroke-linecap="square" stroke-linejoin="bevel" transform="matrix(1,0,0,1,0,0)"
font-family="MS Shell Dlg 2" font-size="8.25" font-weight="400" font-style="normal" 
>
<path vector-effect="non-scaling-stroke" fill-rule="evenodd" d="M42.2,57.2 L33.4,46 L22.2,38.4 L9.61,48.71 L37.2,85.4 L46.42,71.27 L42.2,57.2"/>
</g>

<g fill="#ff007f" fill-opacity="1" stroke="#ff007f" stroke-opacity="1" stroke-width="1" stroke-linecap="square" stroke-linejoin="bevel" transform="matrix(1,0,0,1,0,0)"
font-family="MS Shell Dlg 2" font-size="8.25" font-weight="400" font-style="normal" 
>
<path vector-effect="non-scaling-stroke" fill-rule="evenodd" d="M20.2,55 L31.4,69.8 L37.2,85.4 L25.21,87.11 L15.01,82.51 L7.61,72.01 L6.41,60.31 L9.61,48.71 L20.2,55"/>
</g>
</g>
</svg>
