<?xml version="1.0" encoding="UTF-8" standalone="no"?>
<svg width="35.2778mm" height="35.2778mm"
 viewBox="0 0 100 100"
 xmlns="http://www.w3.org/2000/svg" xmlns:xlink="http://www.w3.org/1999/xlink"  version="1.2" baseProfile="tiny">
<title>SOP_hdk_sparticle.icon</title>
<desc>Generated with Qt</desc>
<defs>
</defs>
<g fill="none" stroke="black" stroke-width="1" fill-rule="evenodd" stroke-linecap="square" stroke-linejoin="bevel" >

<g fill="none" stroke="#000000" stroke-opacity="1" stroke-width="1" stroke-linecap="square" stroke-linejoin="bevel" transform="matrix(1,0,0,1,0,0)"
font-family="MS Shell Dlg 2" font-size="8.25" font-weight="400" font-style="normal" 
>
</g>

<g fill="#cccccc" fill-opacity="1" stroke="#cccccc" stroke-opacity="1" stroke-width="1" stroke-linecap="square" stroke-linejoin="bevel" transform="matrix(1,0,0,1,0,0)"
font-family="MS Shell Dlg 2" font-size="8.25" font-weight="400" font-style="normal" 
>
<polyline fill="none" vector-effect="non-scaling-stroke" points="20,20 30,30 " />
<polyline fill="none" vector-effect="non-scaling-stroke" points="37.4,14.2 43.6,29.6 " />
<polyline fill="none" vector-effect="non-scaling-stroke" points="67,15.2 60,35 " />
<polyline fill="none" vector-effect="non-scaling-stroke" points="80,30 67.8,55.2 " />
<polyline fill="none" vector-effect="non-scaling-stroke" points="40,40 47.6,55 " />
<polyline fill="none" vector-effect="non-scaling-stroke" points="22,53.2 35,62.5 " />
<polyline fill="none" vector-effect="non-scaling-stroke" points="20,75 40,75 " />
<polyline fill="none" vector-effect="non-scaling-stroke" points="82.2,70.6 65,72.5 " />
<polyline fill="none" vector-effect="non-scaling-stroke" points="82.2,84.6 65,77.5 " />
<polyline fill="none" vector-effect="non-scaling-stroke" points="29.6,42.8 46.6,65.8 " />
<polyline fill="none" vector-effect="non-scaling-stroke" points="52.2,23.2 55,57.5 " />
<polyline fill="none" vector-effect="non-scaling-stroke" points="72.8,27.8 63.6,49 " />
<polyline fill="none" vector-effect="non-scaling-stroke" points="15,62.5 40,70 " />
<polyline fill="none" vector-effect="non-scaling-stroke" points="15,32.5 30,50 " />
<polyline fill="none" vector-effect="non-scaling-stroke" points="28.6,17.4 40,35 " />
<polyline fill="none" vector-effect="non-scaling-stroke" points="85,52.5 55,67.5 " />
<polyline fill="none" vector-effect="non-scaling-stroke" points="25,92.5 41.4,81.8 " />
<polyline fill="none" vector-effect="non-scaling-stroke" points="70,95 60,80 " />
</g>
</g>
</svg>
